<svg width="190" height="188" xmlns="http://www.w3.org/2000/svg" xmlns:xlink="http://www.w3.org/1999/xlink" xml:space="preserve" overflow="hidden"><defs><clipPath id="clip0"><rect x="799" y="-65" width="190" height="188"/></clipPath></defs><g clip-path="url(#clip0)" transform="translate(-799 65)"><path d="M799 1.10061C799-21.5986 817.401-39.9999 840.1-39.9999L927.9-39.9999C950.599-39.9999 969-21.5986 969 1.10061L969 81.8996C969 104.599 950.599 123 927.9 123L840.1 123C817.401 123 799 104.599 799 81.8996Z" fill="#f9bf1c" fill-rule="evenodd"/><path d="M819-23.8995C819-46.5987 837.401-65 860.101-65L947.9-65C970.599-65 989-46.5987 989-23.8995L989 56.8993C989 79.5985 970.599 97.9998 947.9 97.9998L860.101 97.9998C837.401 97.9998 819 79.5985 819 56.8993Z" fill="#006334" fill-rule="evenodd"/></g></svg>
